<mxfile host="app.diagrams.net" modified="2024-05-22T15:41:55.190Z" agent="Mozilla/5.0 (Windows NT 10.0; Win64; x64; rv:126.0) Gecko/20100101 Firefox/126.0" etag="hUk8r8_zPWC2geSL5jhG" version="24.4.6" type="device">
  <diagram name="Seite-1" id="z0DCrYU8apStYery9Ikm">
    <mxGraphModel dx="1434" dy="753" grid="1" gridSize="10" guides="1" tooltips="1" connect="1" arrows="1" fold="1" page="1" pageScale="1" pageWidth="827" pageHeight="1169" math="0" shadow="0">
      <root>
        <mxCell id="0" />
        <mxCell id="1" parent="0" />
        <mxCell id="slb56gJnnwfbaBAhxBIY-3" style="edgeStyle=orthogonalEdgeStyle;rounded=0;orthogonalLoop=1;jettySize=auto;html=1;exitX=0;exitY=0.5;exitDx=0;exitDy=0;entryX=0.498;entryY=0.104;entryDx=0;entryDy=0;entryPerimeter=0;endArrow=none;endFill=0;fillColor=#d5e8d4;strokeColor=#82b366;" edge="1" parent="1" source="slb56gJnnwfbaBAhxBIY-66" target="slb56gJnnwfbaBAhxBIY-70">
          <mxGeometry relative="1" as="geometry" />
        </mxCell>
        <mxCell id="slb56gJnnwfbaBAhxBIY-4" style="edgeStyle=orthogonalEdgeStyle;rounded=0;orthogonalLoop=1;jettySize=auto;html=1;exitX=0;exitY=0.5;exitDx=0;exitDy=0;entryX=0.501;entryY=0.167;entryDx=0;entryDy=0;entryPerimeter=0;endArrow=none;endFill=0;fillColor=#d5e8d4;strokeColor=#82b366;" edge="1" parent="1" source="slb56gJnnwfbaBAhxBIY-65" target="slb56gJnnwfbaBAhxBIY-67">
          <mxGeometry relative="1" as="geometry" />
        </mxCell>
        <mxCell id="slb56gJnnwfbaBAhxBIY-5" style="edgeStyle=orthogonalEdgeStyle;rounded=0;orthogonalLoop=1;jettySize=auto;html=1;entryX=0.583;entryY=-0.011;entryDx=0;entryDy=0;entryPerimeter=0;startArrow=none;startFill=0;endArrow=none;endFill=0;strokeColor=#808080;exitX=0;exitY=0;exitDx=0;exitDy=30;exitPerimeter=0;" edge="1" parent="1" source="slb56gJnnwfbaBAhxBIY-41">
          <mxGeometry relative="1" as="geometry">
            <mxPoint x="310" y="310" as="sourcePoint" />
            <mxPoint x="309.71" y="440" as="targetPoint" />
            <Array as="points">
              <mxPoint x="370" y="440" />
            </Array>
          </mxGeometry>
        </mxCell>
        <mxCell id="slb56gJnnwfbaBAhxBIY-6" style="edgeStyle=orthogonalEdgeStyle;rounded=0;orthogonalLoop=1;jettySize=auto;html=1;entryX=0.583;entryY=-0.011;entryDx=0;entryDy=0;entryPerimeter=0;startArrow=none;startFill=0;endArrow=none;endFill=0;strokeColor=#808080;exitX=1;exitY=0.5;exitDx=0;exitDy=0;exitPerimeter=0;" edge="1" parent="1" source="slb56gJnnwfbaBAhxBIY-41">
          <mxGeometry relative="1" as="geometry">
            <mxPoint x="470" y="200" as="sourcePoint" />
            <mxPoint x="470" y="440" as="targetPoint" />
            <Array as="points">
              <mxPoint x="470" y="250" />
              <mxPoint x="470" y="250" />
            </Array>
          </mxGeometry>
        </mxCell>
        <mxCell id="slb56gJnnwfbaBAhxBIY-7" style="edgeStyle=orthogonalEdgeStyle;rounded=0;orthogonalLoop=1;jettySize=auto;html=1;entryX=0.583;entryY=-0.011;entryDx=0;entryDy=0;entryPerimeter=0;startArrow=none;startFill=0;endArrow=none;endFill=0;strokeColor=#808080;exitX=1;exitY=0.5;exitDx=0;exitDy=0;exitPerimeter=0;" edge="1" parent="1" source="slb56gJnnwfbaBAhxBIY-42">
          <mxGeometry relative="1" as="geometry">
            <mxPoint x="530" y="160" as="sourcePoint" />
            <mxPoint x="530" y="440" as="targetPoint" />
            <Array as="points">
              <mxPoint x="530" y="320" />
              <mxPoint x="530" y="320" />
            </Array>
          </mxGeometry>
        </mxCell>
        <mxCell id="slb56gJnnwfbaBAhxBIY-10" style="edgeStyle=orthogonalEdgeStyle;rounded=0;orthogonalLoop=1;jettySize=auto;html=1;entryX=0.583;entryY=-0.011;entryDx=0;entryDy=0;entryPerimeter=0;startArrow=none;startFill=0;endArrow=none;endFill=0;strokeColor=#808080;exitX=1;exitY=0.5;exitDx=0;exitDy=0;exitPerimeter=0;" edge="1" parent="1">
          <mxGeometry relative="1" as="geometry">
            <mxPoint x="499.43" y="105" as="sourcePoint" />
            <mxPoint x="499.43" y="440" as="targetPoint" />
            <Array as="points">
              <mxPoint x="499.43" y="220" />
              <mxPoint x="499.43" y="220" />
            </Array>
          </mxGeometry>
        </mxCell>
        <mxCell id="slb56gJnnwfbaBAhxBIY-11" style="edgeStyle=orthogonalEdgeStyle;rounded=0;orthogonalLoop=1;jettySize=auto;html=1;entryX=0.993;entryY=0.017;entryDx=0;entryDy=0;entryPerimeter=0;startArrow=none;startFill=0;endArrow=none;endFill=0;strokeColor=#808080;exitX=0;exitY=0;exitDx=0;exitDy=30;exitPerimeter=0;" edge="1" parent="1">
          <mxGeometry relative="1" as="geometry">
            <mxPoint x="400.13" y="120" as="sourcePoint" />
            <mxPoint x="399.7099999999999" y="441.0200000000001" as="targetPoint" />
            <Array as="points">
              <mxPoint x="400.13" y="440" />
            </Array>
          </mxGeometry>
        </mxCell>
        <mxCell id="slb56gJnnwfbaBAhxBIY-12" style="edgeStyle=orthogonalEdgeStyle;rounded=0;orthogonalLoop=1;jettySize=auto;html=1;entryX=0.321;entryY=-0.002;entryDx=0;entryDy=0;entryPerimeter=0;startArrow=none;startFill=0;endArrow=none;endFill=0;strokeColor=#808080;exitX=1;exitY=0.5;exitDx=0;exitDy=0;exitPerimeter=0;" edge="1" parent="1" target="slb56gJnnwfbaBAhxBIY-22">
          <mxGeometry relative="1" as="geometry">
            <mxPoint x="199.72" y="280" as="sourcePoint" />
            <mxPoint x="199.42999999999998" y="415" as="targetPoint" />
            <Array as="points">
              <mxPoint x="200" y="306" />
            </Array>
          </mxGeometry>
        </mxCell>
        <mxCell id="slb56gJnnwfbaBAhxBIY-13" style="edgeStyle=orthogonalEdgeStyle;rounded=0;orthogonalLoop=1;jettySize=auto;html=1;entryX=0.583;entryY=-0.011;entryDx=0;entryDy=0;entryPerimeter=0;startArrow=none;startFill=0;endArrow=none;endFill=0;exitX=0;exitY=0;exitDx=0;exitDy=30;exitPerimeter=0;strokeColor=#808080;" edge="1" parent="1" source="slb56gJnnwfbaBAhxBIY-31">
          <mxGeometry relative="1" as="geometry">
            <mxPoint x="105" y="384.97" as="sourcePoint" />
            <mxPoint x="105" y="439.97" as="targetPoint" />
            <Array as="points" />
          </mxGeometry>
        </mxCell>
        <mxCell id="slb56gJnnwfbaBAhxBIY-14" style="edgeStyle=orthogonalEdgeStyle;rounded=0;orthogonalLoop=1;jettySize=auto;html=1;exitX=0;exitY=0;exitDx=0;exitDy=30;exitPerimeter=0;entryX=0.583;entryY=-0.011;entryDx=0;entryDy=0;entryPerimeter=0;startArrow=none;startFill=0;endArrow=none;endFill=0;strokeColor=#808080;" edge="1" parent="1" source="slb56gJnnwfbaBAhxBIY-33" target="slb56gJnnwfbaBAhxBIY-21">
          <mxGeometry relative="1" as="geometry" />
        </mxCell>
        <mxCell id="slb56gJnnwfbaBAhxBIY-15" value="&lt;div style=&quot;font-size: 13px;&quot; align=&quot;left&quot;&gt;&lt;font style=&quot;font-size: 14px;&quot;&gt;Woche&lt;/font&gt;&lt;/div&gt;" style="rounded=1;whiteSpace=wrap;html=1;align=left;strokeColor=#666666;fillColor=#f5f5f5;gradientColor=#b3b3b3;" vertex="1" parent="1">
          <mxGeometry x="29" y="440" width="770" height="30" as="geometry" />
        </mxCell>
        <mxCell id="slb56gJnnwfbaBAhxBIY-16" value="&lt;div style=&quot;font-size: 13px;&quot; align=&quot;left&quot;&gt;&lt;font style=&quot;font-size: 14px;&quot;&gt;Datum&lt;/font&gt;&lt;/div&gt;" style="rounded=1;whiteSpace=wrap;html=1;align=left;fillColor=#f5f5f5;strokeColor=#666666;gradientColor=#b3b3b3;" vertex="1" parent="1">
          <mxGeometry x="29" y="470" width="770" height="30" as="geometry" />
        </mxCell>
        <mxCell id="slb56gJnnwfbaBAhxBIY-17" value="" style="verticalLabelPosition=bottom;verticalAlign=top;html=1;shape=mxgraph.basic.8_point_star;fillColor=#f8cecc;gradientColor=#ea6b66;strokeColor=#b85450;" vertex="1" parent="1">
          <mxGeometry x="90" y="490" width="30" height="30" as="geometry" />
        </mxCell>
        <mxCell id="slb56gJnnwfbaBAhxBIY-19" value="&lt;div style=&quot;font-size: 13px;&quot;&gt;&lt;font style=&quot;font-size: 13px;&quot;&gt;1&lt;/font&gt;&lt;/div&gt;&lt;div style=&quot;font-size: 13px;&quot;&gt;&lt;font style=&quot;font-size: 13px;&quot;&gt;&lt;br&gt;&lt;/font&gt;&lt;/div&gt;&lt;div style=&quot;font-size: 13px;&quot;&gt;&lt;font style=&quot;font-size: 13px;&quot;&gt;11.04&lt;/font&gt;&lt;br&gt;&lt;/div&gt;" style="text;html=1;align=center;verticalAlign=middle;resizable=0;points=[];autosize=1;strokeColor=none;fillColor=none;" vertex="1" parent="1">
          <mxGeometry x="80" y="440" width="50" height="60" as="geometry" />
        </mxCell>
        <mxCell id="slb56gJnnwfbaBAhxBIY-20" value="&lt;font color=&quot;#ff5353&quot;&gt;Projektbeginn&lt;/font&gt;" style="text;html=1;align=center;verticalAlign=middle;resizable=0;points=[];autosize=1;strokeColor=none;fillColor=none;" vertex="1" parent="1">
          <mxGeometry x="55" y="520" width="100" height="30" as="geometry" />
        </mxCell>
        <mxCell id="slb56gJnnwfbaBAhxBIY-21" value="&lt;div style=&quot;font-size: 13px;&quot;&gt;&lt;font style=&quot;font-size: 13px;&quot;&gt;2&lt;br&gt;&lt;/font&gt;&lt;/div&gt;&lt;div style=&quot;font-size: 13px;&quot;&gt;&lt;font style=&quot;font-size: 13px;&quot;&gt;&lt;br&gt;&lt;/font&gt;&lt;/div&gt;&lt;div style=&quot;font-size: 13px;&quot;&gt;&lt;font style=&quot;font-size: 13px;&quot;&gt;18.04&lt;/font&gt;&lt;br&gt;&lt;/div&gt;" style="text;html=1;align=center;verticalAlign=middle;resizable=0;points=[];autosize=1;strokeColor=none;fillColor=none;" vertex="1" parent="1">
          <mxGeometry x="125" y="440" width="60" height="60" as="geometry" />
        </mxCell>
        <mxCell id="slb56gJnnwfbaBAhxBIY-22" value="&lt;div style=&quot;font-size: 13px;&quot;&gt;&lt;font style=&quot;font-size: 13px;&quot;&gt;3&lt;/font&gt;&lt;/div&gt;&lt;div style=&quot;font-size: 13px;&quot;&gt;&lt;font style=&quot;font-size: 13px;&quot;&gt;&lt;br&gt;&lt;/font&gt;&lt;/div&gt;&lt;div style=&quot;font-size: 13px;&quot;&gt;&lt;font style=&quot;font-size: 13px;&quot;&gt;&lt;font style=&quot;font-size: 13px;&quot;&gt;25.04&lt;/font&gt;&lt;font style=&quot;font-size: 13px;&quot;&gt;&lt;br&gt;&lt;/font&gt;&lt;/font&gt;&lt;/div&gt;" style="text;html=1;align=center;verticalAlign=middle;resizable=0;points=[];autosize=1;strokeColor=none;fillColor=none;" vertex="1" parent="1">
          <mxGeometry x="180" y="440" width="60" height="60" as="geometry" />
        </mxCell>
        <mxCell id="slb56gJnnwfbaBAhxBIY-23" value="&lt;div style=&quot;font-size: 13px;&quot;&gt;&lt;font style=&quot;font-size: 13px;&quot;&gt;4&lt;/font&gt;&lt;/div&gt;&lt;div style=&quot;font-size: 13px;&quot;&gt;&lt;font style=&quot;font-size: 13px;&quot;&gt;&lt;br&gt;&lt;/font&gt;&lt;/div&gt;&lt;div style=&quot;font-size: 13px;&quot;&gt;&lt;font style=&quot;font-size: 13px;&quot;&gt;&lt;font style=&quot;font-size: 13px;&quot;&gt;02.05&lt;/font&gt;&lt;font style=&quot;font-size: 13px;&quot;&gt;&lt;br&gt;&lt;/font&gt;&lt;/font&gt;&lt;/div&gt;" style="text;html=1;align=center;verticalAlign=middle;resizable=0;points=[];autosize=1;strokeColor=none;fillColor=none;" vertex="1" parent="1">
          <mxGeometry x="230" y="440" width="60" height="60" as="geometry" />
        </mxCell>
        <mxCell id="slb56gJnnwfbaBAhxBIY-24" value="&lt;div style=&quot;font-size: 13px;&quot;&gt;&lt;font style=&quot;font-size: 13px;&quot;&gt;5&lt;/font&gt;&lt;/div&gt;&lt;div style=&quot;font-size: 13px;&quot;&gt;&lt;font style=&quot;font-size: 13px;&quot;&gt;&lt;br&gt;&lt;/font&gt;&lt;/div&gt;&lt;div style=&quot;font-size: 13px;&quot;&gt;&lt;font style=&quot;font-size: 13px;&quot;&gt;&lt;font style=&quot;font-size: 13px;&quot;&gt;09.05&lt;/font&gt;&lt;font style=&quot;font-size: 13px;&quot;&gt;&lt;br&gt;&lt;/font&gt;&lt;/font&gt;&lt;/div&gt;" style="text;html=1;align=center;verticalAlign=middle;resizable=0;points=[];autosize=1;strokeColor=none;fillColor=none;" vertex="1" parent="1">
          <mxGeometry x="280" y="440" width="60" height="60" as="geometry" />
        </mxCell>
        <mxCell id="slb56gJnnwfbaBAhxBIY-25" value="&lt;font style=&quot;font-size: 13px;&quot;&gt;6&lt;/font&gt;&lt;br&gt;&lt;div style=&quot;font-size: 13px;&quot;&gt;&lt;font style=&quot;font-size: 13px;&quot;&gt;&lt;br&gt;&lt;/font&gt;&lt;/div&gt;&lt;div style=&quot;font-size: 13px;&quot;&gt;&lt;font style=&quot;font-size: 13px;&quot;&gt;&lt;font style=&quot;font-size: 13px;&quot;&gt;16.05&lt;/font&gt;&lt;font style=&quot;font-size: 13px;&quot;&gt;&lt;br&gt;&lt;/font&gt;&lt;/font&gt;&lt;/div&gt;" style="text;html=1;align=center;verticalAlign=middle;resizable=0;points=[];autosize=1;strokeColor=none;fillColor=none;" vertex="1" parent="1">
          <mxGeometry x="330" y="440" width="60" height="60" as="geometry" />
        </mxCell>
        <mxCell id="slb56gJnnwfbaBAhxBIY-26" value="&lt;div style=&quot;font-size: 13px;&quot;&gt;7&lt;br&gt;&lt;/div&gt;&lt;div style=&quot;font-size: 13px;&quot;&gt;&lt;font style=&quot;font-size: 13px;&quot;&gt;&lt;br&gt;&lt;/font&gt;&lt;/div&gt;&lt;div style=&quot;font-size: 13px;&quot;&gt;&lt;font style=&quot;font-size: 13px;&quot;&gt;&lt;font style=&quot;font-size: 13px;&quot;&gt;23.05&lt;/font&gt;&lt;font style=&quot;font-size: 13px;&quot;&gt;&lt;br&gt;&lt;/font&gt;&lt;/font&gt;&lt;/div&gt;" style="text;html=1;align=center;verticalAlign=middle;resizable=0;points=[];autosize=1;strokeColor=none;fillColor=none;" vertex="1" parent="1">
          <mxGeometry x="384" y="440" width="60" height="60" as="geometry" />
        </mxCell>
        <mxCell id="slb56gJnnwfbaBAhxBIY-27" value="&lt;div style=&quot;font-size: 13px;&quot;&gt;&lt;font style=&quot;font-size: 13px;&quot;&gt;8&lt;/font&gt;&lt;/div&gt;&lt;div style=&quot;font-size: 13px;&quot;&gt;&lt;font style=&quot;font-size: 13px;&quot;&gt;&lt;br&gt;&lt;/font&gt;&lt;/div&gt;&lt;div style=&quot;font-size: 13px;&quot;&gt;&lt;font style=&quot;font-size: 13px;&quot;&gt;&lt;font style=&quot;font-size: 13px;&quot;&gt;30.05&lt;/font&gt;&lt;font style=&quot;font-size: 13px;&quot;&gt;&lt;br&gt;&lt;/font&gt;&lt;/font&gt;&lt;/div&gt;" style="text;html=1;align=center;verticalAlign=middle;resizable=0;points=[];autosize=1;strokeColor=none;fillColor=none;" vertex="1" parent="1">
          <mxGeometry x="440" y="440" width="60" height="60" as="geometry" />
        </mxCell>
        <mxCell id="slb56gJnnwfbaBAhxBIY-28" value="&lt;div style=&quot;font-size: 13px;&quot;&gt;&lt;font style=&quot;font-size: 13px;&quot;&gt;9&lt;/font&gt;&lt;/div&gt;&lt;div style=&quot;font-size: 13px;&quot;&gt;&lt;font style=&quot;font-size: 13px;&quot;&gt;&lt;br&gt;&lt;/font&gt;&lt;/div&gt;&lt;div style=&quot;font-size: 13px;&quot;&gt;&lt;font style=&quot;font-size: 13px;&quot;&gt;&lt;font style=&quot;font-size: 13px;&quot;&gt;06.06&lt;/font&gt;&lt;font style=&quot;font-size: 13px;&quot;&gt;&lt;br&gt;&lt;/font&gt;&lt;/font&gt;&lt;/div&gt;" style="text;html=1;align=center;verticalAlign=middle;resizable=0;points=[];autosize=1;strokeColor=none;fillColor=none;" vertex="1" parent="1">
          <mxGeometry x="490" y="440" width="60" height="60" as="geometry" />
        </mxCell>
        <mxCell id="slb56gJnnwfbaBAhxBIY-29" value="&lt;div style=&quot;font-size: 13px;&quot;&gt;&lt;font style=&quot;font-size: 13px;&quot;&gt;10&lt;/font&gt;&lt;/div&gt;&lt;div style=&quot;font-size: 13px;&quot;&gt;&lt;font style=&quot;font-size: 13px;&quot;&gt;&lt;br&gt;&lt;/font&gt;&lt;/div&gt;&lt;div style=&quot;font-size: 13px;&quot;&gt;&lt;font style=&quot;font-size: 13px;&quot;&gt;&lt;font style=&quot;font-size: 13px;&quot;&gt;13.06&lt;/font&gt;&lt;font style=&quot;font-size: 13px;&quot;&gt;&lt;br&gt;&lt;/font&gt;&lt;/font&gt;&lt;/div&gt;" style="text;html=1;align=center;verticalAlign=middle;resizable=0;points=[];autosize=1;strokeColor=none;fillColor=none;" vertex="1" parent="1">
          <mxGeometry x="540" y="440" width="60" height="60" as="geometry" />
        </mxCell>
        <mxCell id="slb56gJnnwfbaBAhxBIY-30" value="" style="verticalLabelPosition=bottom;verticalAlign=top;html=1;shape=mxgraph.basic.8_point_star;fillColor=#f8cecc;gradientColor=#ea6b66;strokeColor=#b85450;" vertex="1" parent="1">
          <mxGeometry x="505" y="490" width="30" height="30" as="geometry" />
        </mxCell>
        <mxCell id="slb56gJnnwfbaBAhxBIY-31" value="Recherche" style="html=1;shadow=0;dashed=0;align=center;verticalAlign=middle;shape=mxgraph.arrows2.arrow;dy=0;dx=10;notch=0;fillColor=#6d8764;fontColor=#ffffff;strokeColor=#3A5431;" vertex="1" parent="1">
          <mxGeometry x="105" y="330" width="155" height="30" as="geometry" />
        </mxCell>
        <mxCell id="slb56gJnnwfbaBAhxBIY-32" value="Organisation" style="html=1;shadow=0;dashed=0;align=center;verticalAlign=middle;shape=mxgraph.arrows2.arrow;dy=0;dx=10;notch=0;fillColor=#6d8764;fontColor=#ffffff;strokeColor=#3A5431;" vertex="1" parent="1">
          <mxGeometry x="105" y="370" width="105" height="30" as="geometry" />
        </mxCell>
        <mxCell id="slb56gJnnwfbaBAhxBIY-33" value="Entwurf" style="html=1;shadow=0;dashed=0;align=center;verticalAlign=middle;shape=mxgraph.arrows2.arrow;dy=0;dx=10;notch=0;fillColor=#6d8764;fontColor=#ffffff;strokeColor=#3A5431;" vertex="1" parent="1">
          <mxGeometry x="160" y="290" width="150" height="30" as="geometry" />
        </mxCell>
        <mxCell id="slb56gJnnwfbaBAhxBIY-34" style="edgeStyle=orthogonalEdgeStyle;rounded=0;orthogonalLoop=1;jettySize=auto;html=1;entryX=0.583;entryY=-0.011;entryDx=0;entryDy=0;entryPerimeter=0;startArrow=none;startFill=0;endArrow=none;endFill=0;strokeColor=#808080;exitX=1;exitY=0.5;exitDx=0;exitDy=0;exitPerimeter=0;" edge="1" parent="1" source="slb56gJnnwfbaBAhxBIY-31">
          <mxGeometry relative="1" as="geometry">
            <mxPoint x="259" y="390" as="sourcePoint" />
            <mxPoint x="259.43" y="439" as="targetPoint" />
            <Array as="points">
              <mxPoint x="259" y="385" />
              <mxPoint x="259" y="420" />
            </Array>
          </mxGeometry>
        </mxCell>
        <mxCell id="slb56gJnnwfbaBAhxBIY-35" style="edgeStyle=orthogonalEdgeStyle;rounded=0;orthogonalLoop=1;jettySize=auto;html=1;startArrow=none;startFill=0;endArrow=none;endFill=0;exitX=1;exitY=0.5;exitDx=0;exitDy=0;exitPerimeter=0;strokeColor=#808080;" edge="1" parent="1" source="slb56gJnnwfbaBAhxBIY-32">
          <mxGeometry relative="1" as="geometry">
            <mxPoint x="210" y="380" as="sourcePoint" />
            <mxPoint x="210" y="440" as="targetPoint" />
            <Array as="points">
              <mxPoint x="210" y="400" />
              <mxPoint x="210" y="400" />
            </Array>
          </mxGeometry>
        </mxCell>
        <mxCell id="slb56gJnnwfbaBAhxBIY-36" value="" style="triangle;whiteSpace=wrap;html=1;rotation=-90;fillColor=#b1ddf0;strokeColor=#10739e;" vertex="1" parent="1">
          <mxGeometry x="200" y="490" width="20" height="30" as="geometry" />
        </mxCell>
        <mxCell id="slb56gJnnwfbaBAhxBIY-37" value="Implementierung Kommunikation" style="html=1;shadow=0;dashed=0;align=center;verticalAlign=middle;shape=mxgraph.arrows2.arrow;dy=0;dx=10;notch=0;fillColor=#6d8764;fontColor=#ffffff;strokeColor=#3A5431;" vertex="1" parent="1">
          <mxGeometry x="200" y="210" width="200" height="30" as="geometry" />
        </mxCell>
        <mxCell id="slb56gJnnwfbaBAhxBIY-39" value="Webseitendesign" style="html=1;shadow=0;dashed=0;align=center;verticalAlign=middle;shape=mxgraph.arrows2.arrow;dy=0;dx=10;notch=0;fillColor=#6d8764;fontColor=#ffffff;strokeColor=#3A5431;" vertex="1" parent="1">
          <mxGeometry x="200" y="250" width="110" height="30" as="geometry" />
        </mxCell>
        <mxCell id="slb56gJnnwfbaBAhxBIY-40" value="Präsentation" style="html=1;shadow=0;dashed=0;align=center;verticalAlign=middle;shape=mxgraph.arrows2.arrow;dy=0;dx=10;notch=0;fillColor=#6d8764;fontColor=#ffffff;strokeColor=#3A5431;" vertex="1" parent="1">
          <mxGeometry x="400" y="90" width="100" height="30" as="geometry" />
        </mxCell>
        <mxCell id="slb56gJnnwfbaBAhxBIY-41" value="Testen" style="html=1;shadow=0;dashed=0;align=center;verticalAlign=middle;shape=mxgraph.arrows2.arrow;dy=0;dx=10;notch=0;fillColor=#6d8764;fontColor=#ffffff;strokeColor=#3A5431;" vertex="1" parent="1">
          <mxGeometry x="370" y="170" width="100" height="30" as="geometry" />
        </mxCell>
        <mxCell id="slb56gJnnwfbaBAhxBIY-42" value="Implementierung Webseite" style="html=1;shadow=0;dashed=0;align=center;verticalAlign=middle;shape=mxgraph.arrows2.arrow;dy=0;dx=10;notch=0;fillColor=#6d8764;fontColor=#ffffff;strokeColor=#3A5431;" vertex="1" parent="1">
          <mxGeometry x="320" y="250" width="210" height="30" as="geometry" />
        </mxCell>
        <mxCell id="slb56gJnnwfbaBAhxBIY-43" style="edgeStyle=orthogonalEdgeStyle;rounded=0;orthogonalLoop=1;jettySize=auto;html=1;entryX=0.583;entryY=-0.011;entryDx=0;entryDy=0;entryPerimeter=0;startArrow=none;startFill=0;endArrow=none;endFill=0;strokeColor=#808080;" edge="1" parent="1">
          <mxGeometry relative="1" as="geometry">
            <mxPoint x="320" y="280" as="sourcePoint" />
            <mxPoint x="320" y="440" as="targetPoint" />
            <Array as="points">
              <mxPoint x="320.29" y="331" />
            </Array>
          </mxGeometry>
        </mxCell>
        <mxCell id="slb56gJnnwfbaBAhxBIY-46" value="&lt;div style=&quot;font-size: 13px;&quot;&gt;&lt;font style=&quot;font-size: 13px;&quot;&gt;11&lt;/font&gt;&lt;/div&gt;&lt;div style=&quot;font-size: 13px;&quot;&gt;&lt;font style=&quot;font-size: 13px;&quot;&gt;&lt;br&gt;&lt;/font&gt;&lt;/div&gt;&lt;div style=&quot;font-size: 13px;&quot;&gt;&lt;font style=&quot;font-size: 13px;&quot;&gt;&lt;font style=&quot;font-size: 13px;&quot;&gt;20.06&lt;/font&gt;&lt;font style=&quot;font-size: 13px;&quot;&gt;&lt;br&gt;&lt;/font&gt;&lt;/font&gt;&lt;/div&gt;" style="text;html=1;align=center;verticalAlign=middle;resizable=0;points=[];autosize=1;strokeColor=none;fillColor=none;" vertex="1" parent="1">
          <mxGeometry x="590" y="440" width="60" height="60" as="geometry" />
        </mxCell>
        <mxCell id="slb56gJnnwfbaBAhxBIY-47" value="&lt;div style=&quot;font-size: 13px;&quot;&gt;&lt;font style=&quot;font-size: 13px;&quot;&gt;12&lt;/font&gt;&lt;/div&gt;&lt;div style=&quot;font-size: 13px;&quot;&gt;&lt;font style=&quot;font-size: 13px;&quot;&gt;&lt;br&gt;&lt;/font&gt;&lt;/div&gt;&lt;div style=&quot;font-size: 13px;&quot;&gt;&lt;font style=&quot;font-size: 13px;&quot;&gt;&lt;font style=&quot;font-size: 13px;&quot;&gt;27.06&lt;/font&gt;&lt;font style=&quot;font-size: 13px;&quot;&gt;&lt;br&gt;&lt;/font&gt;&lt;/font&gt;&lt;/div&gt;" style="text;html=1;align=center;verticalAlign=middle;resizable=0;points=[];autosize=1;strokeColor=none;fillColor=none;" vertex="1" parent="1">
          <mxGeometry x="640" y="440" width="60" height="60" as="geometry" />
        </mxCell>
        <mxCell id="slb56gJnnwfbaBAhxBIY-48" value="&lt;div style=&quot;font-size: 13px;&quot;&gt;&lt;font style=&quot;font-size: 13px;&quot;&gt;13&lt;/font&gt;&lt;/div&gt;&lt;div style=&quot;font-size: 13px;&quot;&gt;&lt;font style=&quot;font-size: 13px;&quot;&gt;&lt;br&gt;&lt;/font&gt;&lt;/div&gt;&lt;div style=&quot;font-size: 13px;&quot;&gt;&lt;font style=&quot;font-size: 13px;&quot;&gt;&lt;font style=&quot;font-size: 13px;&quot;&gt;04.07&lt;/font&gt;&lt;font style=&quot;font-size: 13px;&quot;&gt;&lt;br&gt;&lt;/font&gt;&lt;/font&gt;&lt;/div&gt;" style="text;html=1;align=center;verticalAlign=middle;resizable=0;points=[];autosize=1;strokeColor=none;fillColor=none;" vertex="1" parent="1">
          <mxGeometry x="690" y="440" width="60" height="60" as="geometry" />
        </mxCell>
        <mxCell id="slb56gJnnwfbaBAhxBIY-49" value="&lt;div style=&quot;font-size: 13px;&quot;&gt;&lt;font style=&quot;font-size: 13px;&quot;&gt;14&lt;/font&gt;&lt;/div&gt;&lt;div style=&quot;font-size: 13px;&quot;&gt;&lt;font style=&quot;font-size: 13px;&quot;&gt;&lt;br&gt;&lt;/font&gt;&lt;/div&gt;&lt;div style=&quot;font-size: 13px;&quot;&gt;&lt;font style=&quot;font-size: 13px;&quot;&gt;&lt;font style=&quot;font-size: 13px;&quot;&gt;11.07&lt;/font&gt;&lt;font style=&quot;font-size: 13px;&quot;&gt;&lt;br&gt;&lt;/font&gt;&lt;/font&gt;&lt;/div&gt;" style="text;html=1;align=center;verticalAlign=middle;resizable=0;points=[];autosize=1;strokeColor=none;fillColor=none;" vertex="1" parent="1">
          <mxGeometry x="744" y="440" width="50" height="60" as="geometry" />
        </mxCell>
        <mxCell id="slb56gJnnwfbaBAhxBIY-53" value="" style="triangle;whiteSpace=wrap;html=1;rotation=-90;fillColor=#b1ddf0;strokeColor=#10739e;" vertex="1" parent="1">
          <mxGeometry x="390" y="490" width="20" height="30" as="geometry" />
        </mxCell>
        <mxCell id="slb56gJnnwfbaBAhxBIY-55" value="&lt;div&gt;&lt;font color=&quot;#3399ff&quot;&gt;Fertigstellung&lt;/font&gt;&lt;/div&gt;&lt;div&gt;&lt;font color=&quot;#3399ff&quot;&gt;Lastenheft&lt;br&gt;&lt;/font&gt;&lt;/div&gt;" style="text;html=1;align=center;verticalAlign=middle;resizable=0;points=[];autosize=1;strokeColor=none;fillColor=none;" vertex="1" parent="1">
          <mxGeometry x="160" y="580" width="100" height="40" as="geometry" />
        </mxCell>
        <mxCell id="slb56gJnnwfbaBAhxBIY-56" value="&lt;div&gt;&lt;font color=&quot;#3399ff&quot;&gt;Fertigstellung&lt;/font&gt;&lt;/div&gt;&lt;div&gt;&lt;font color=&quot;#3399ff&quot;&gt;Pflichtenheft &amp;amp;&lt;/font&gt;&lt;/div&gt;&lt;div&gt;&lt;font color=&quot;#3399ff&quot;&gt;Architekturentwurf&lt;br&gt;&lt;/font&gt;&lt;/div&gt;" style="text;html=1;align=center;verticalAlign=middle;resizable=0;points=[];autosize=1;strokeColor=none;fillColor=none;" vertex="1" parent="1">
          <mxGeometry x="250" y="570" width="120" height="60" as="geometry" />
        </mxCell>
        <mxCell id="slb56gJnnwfbaBAhxBIY-57" value="&lt;div&gt;&lt;font color=&quot;#3399ff&quot;&gt;Funktionsfähige&lt;/font&gt;&lt;/div&gt;&lt;div&gt;&lt;font color=&quot;#3399ff&quot;&gt;Kommunikation&lt;/font&gt;&lt;/div&gt;&lt;div&gt;&lt;font color=&quot;#3399ff&quot;&gt;(mit Docker)&lt;br&gt;&lt;/font&gt;&lt;/div&gt;" style="text;html=1;align=center;verticalAlign=middle;resizable=0;points=[];autosize=1;strokeColor=none;fillColor=none;" vertex="1" parent="1">
          <mxGeometry x="350" y="570" width="110" height="60" as="geometry" />
        </mxCell>
        <mxCell id="slb56gJnnwfbaBAhxBIY-58" value="&lt;div&gt;&lt;font color=&quot;#ff5353&quot;&gt;Zwischen-&lt;/font&gt;&lt;/div&gt;&lt;div&gt;&lt;font color=&quot;#ff5353&quot;&gt;präsentation&lt;br&gt;&lt;/font&gt;&lt;/div&gt;" style="text;html=1;align=center;verticalAlign=middle;resizable=0;points=[];autosize=1;strokeColor=none;fillColor=none;" vertex="1" parent="1">
          <mxGeometry x="475" y="520" width="90" height="40" as="geometry" />
        </mxCell>
        <mxCell id="slb56gJnnwfbaBAhxBIY-61" value="" style="endArrow=none;html=1;rounded=0;entryX=0;entryY=0.5;entryDx=0;entryDy=0;exitX=0.5;exitY=0.125;exitDx=0;exitDy=0;exitPerimeter=0;fillColor=#dae8fc;gradientColor=#7ea6e0;strokeColor=#6c8ebf;" edge="1" parent="1" source="slb56gJnnwfbaBAhxBIY-55" target="slb56gJnnwfbaBAhxBIY-36">
          <mxGeometry width="50" height="50" relative="1" as="geometry">
            <mxPoint x="410" y="460" as="sourcePoint" />
            <mxPoint x="460" y="410" as="targetPoint" />
          </mxGeometry>
        </mxCell>
        <mxCell id="slb56gJnnwfbaBAhxBIY-62" value="" style="endArrow=none;html=1;rounded=0;fillColor=#dae8fc;gradientColor=#7ea6e0;strokeColor=#6c8ebf;entryX=0;entryY=0.5;entryDx=0;entryDy=0;exitX=0.455;exitY=0.167;exitDx=0;exitDy=0;exitPerimeter=0;" edge="1" parent="1" source="slb56gJnnwfbaBAhxBIY-57" target="slb56gJnnwfbaBAhxBIY-53">
          <mxGeometry width="50" height="50" relative="1" as="geometry">
            <mxPoint x="394" y="530" as="sourcePoint" />
            <mxPoint x="360" y="510" as="targetPoint" />
          </mxGeometry>
        </mxCell>
        <mxCell id="slb56gJnnwfbaBAhxBIY-64" value="" style="endArrow=none;html=1;rounded=0;exitX=0.5;exitY=0.125;exitDx=0;exitDy=0;exitPerimeter=0;fillColor=#dae8fc;gradientColor=#7ea6e0;strokeColor=#6c8ebf;entryX=0;entryY=0.5;entryDx=0;entryDy=0;" edge="1" parent="1">
          <mxGeometry width="50" height="50" relative="1" as="geometry">
            <mxPoint x="309.72" y="535" as="sourcePoint" />
            <mxPoint x="309.72" y="515" as="targetPoint" />
            <Array as="points">
              <mxPoint x="310" y="580" />
            </Array>
          </mxGeometry>
        </mxCell>
        <mxCell id="slb56gJnnwfbaBAhxBIY-65" value="" style="triangle;whiteSpace=wrap;html=1;rotation=-90;fillColor=#d5e8d4;strokeColor=#82b366;" vertex="1" parent="1">
          <mxGeometry x="424" y="490" width="20" height="30" as="geometry" />
        </mxCell>
        <mxCell id="slb56gJnnwfbaBAhxBIY-66" value="" style="triangle;whiteSpace=wrap;html=1;rotation=-90;fillColor=#d5e8d4;strokeColor=#82b366;" vertex="1" parent="1">
          <mxGeometry x="290" y="490" width="20" height="30" as="geometry" />
        </mxCell>
        <mxCell id="slb56gJnnwfbaBAhxBIY-67" value="&lt;div&gt;&lt;font color=&quot;#66cc00&quot;&gt;Test-Webseite +&lt;br&gt;&lt;/font&gt;&lt;/div&gt;&lt;div&gt;&lt;font color=&quot;#66cc00&quot;&gt;Standard-&lt;/font&gt;&lt;/div&gt;&lt;div&gt;&lt;font color=&quot;#66cc00&quot;&gt;funktionalität&lt;br&gt;&lt;/font&gt;&lt;/div&gt;" style="text;html=1;align=center;verticalAlign=middle;resizable=0;points=[];autosize=1;strokeColor=none;fillColor=none;" vertex="1" parent="1">
          <mxGeometry x="379" y="640" width="110" height="60" as="geometry" />
        </mxCell>
        <mxCell id="slb56gJnnwfbaBAhxBIY-70" value="&lt;div&gt;&lt;font color=&quot;#66cc00&quot;&gt;Design &amp;amp;&amp;nbsp;&lt;/font&gt;&lt;/div&gt;&lt;div&gt;&lt;font color=&quot;#66cc00&quot;&gt;Mockups&lt;/font&gt;&lt;/div&gt;" style="text;html=1;align=center;verticalAlign=middle;resizable=0;points=[];autosize=1;strokeColor=none;fillColor=none;" vertex="1" parent="1">
          <mxGeometry x="260" y="650" width="80" height="40" as="geometry" />
        </mxCell>
        <mxCell id="slb56gJnnwfbaBAhxBIY-71" value="" style="triangle;whiteSpace=wrap;html=1;rotation=-90;fillColor=#b1ddf0;strokeColor=#10739e;" vertex="1" parent="1">
          <mxGeometry x="300" y="490" width="20" height="30" as="geometry" />
        </mxCell>
      </root>
    </mxGraphModel>
  </diagram>
</mxfile>
